<?xml version="1.0" encoding="utf-8"?>
<!-- Generator: Adobe Illustrator 27.1.0, SVG Export Plug-In . SVG Version: 6.00 Build 0)  -->
<svg version="1.1" id="Capa_1" xmlns="http://www.w3.org/2000/svg" xmlns:xlink="http://www.w3.org/1999/xlink" x="0px" y="0px"
	 viewBox="130 100 250 250" style="enable-background:new 0 0 500 500;" xml:space="preserve">

<g id="XMLID_1693_">
	<path id="XMLID_1695_" class="st0" d="M250,350.6L250,350.6c-64.3,0-116.43-52.13-116.43-116.43v0
		c0-64.3,52.13-116.43,116.43-116.43h0c64.3,0,116.43,52.13,116.43,116.43v0C366.43,298.47,314.3,350.6,250,350.6z"/>
	<path fill="white" id="XMLID_1694_" class="st1" d="M232.26,304.55h28.34v-70.97h19.77l2.11-23.76H260.6c0,0,0-8.87,0-13.53
		c0-5.6,1.13-7.82,6.54-7.82c4.36,0,15.34,0,15.34,0V163.8c0,0-16.17,0-19.62,0c-21.09,0-30.6,9.29-30.6,27.07
		c0,15.49,0,18.95,0,18.95h-14.74v24.06h14.74V304.55z"/>
</g>
<g>
	<g>
		<g>
			<circle class="st0" cx="1005.8" cy="234.17" r="116.43"/>
		</g>
	</g>
	<path class="st1" d="M1071.04,195.7c0-0.68-0.02-0.7-0.73-0.7c-1.7,0.02-3.39-0.19-5.07-0.44c-6.09-0.92-25.85-11.28-29.19-28.24
		c-0.07-0.33-0.81-4.54-0.8-6.33c0-0.8-0.01-0.8-0.8-0.81c-0.18,0-0.37,0-0.55,0c-7.73,0-15.46,0-23.2,0
		c-1.56,0-1.34-0.19-1.34,1.37c0,33.53,0,67.06,0,100.6c0,1.25-0.04,2.5-0.26,3.73c-1.17,6.49-4.49,11.57-10.11,15.03
		c-4.87,3-10.16,3.86-15.78,2.75c-1.77-0.35-3.43-1.02-5.09-1.68c-0.13-0.12-0.27-0.25-0.4-0.37c-0.56-0.47-1.18-0.86-1.77-1.27
		c-7.16-4.96-10.55-11.84-9.52-20.44c1.05-8.73,6.07-14.66,14.35-17.71c2.47-0.91,5.07-1.29,7.71-1.15c1.7,0.09,3.39,0.31,5.04,0.77
		c0.57,0.16,0.88-0.04,0.91-0.64c0.01-0.21,0.02-0.43,0.02-0.64c0-6.02-0.22-19.17-0.26-19.2c0.01-1.73,0.01-3.47,0.04-5.2
		c0.01-0.5-0.24-0.59-0.66-0.64c-3.12-0.37-6.24-0.44-9.37-0.21c-4.33,0.32-8.53,1.21-12.62,2.67c-6.51,2.34-12.23,5.96-17.16,10.8
		c-4.24,4.15-7.57,8.95-10.01,14.36c-2.34,5.18-3.68,10.61-4.05,16.27c-0.16,2.45-0.13,4.92,0.1,7.38c0.31,3.4,0.96,6.73,1.99,9.98
		c2.98,9.34,8.38,17.01,16.05,23.09c0.78,0.62,1.53,1.3,2.46,1.7c0,0,0,0,0,0c0.39,0.35,0.78,0.69,1.17,1.04
		c1.24,0.94,2.57,1.74,3.96,2.42c8.59,4.24,17.65,5.97,27.19,4.81c12.38-1.51,22.69-7,30.81-16.45c7.64-8.9,11.36-19.34,11.42-31.02
		c0.1-16.7,0.02-33.4,0.03-50.1c0-0.4-0.23-0.96,0.21-1.16c0.34-0.16,0.69,0.3,1.01,0.51c6.22,4.08,12.92,7.03,20.17,8.69
		c4.22,0.97,8.49,1.55,12.84,1.55c1.37,0,1.55-0.07,1.55-1.43C1071.35,213.48,1071.04,197.27,1071.04,195.7z"/>
</g>
</svg>
