<?xml version="1.0" encoding="utf-8"?>
<!-- Generator: Adobe Illustrator 27.1.0, SVG Export Plug-In . SVG Version: 6.00 Build 0)  -->
<svg version="1.1" id="Capa_1" xmlns="http://www.w3.org/2000/svg" xmlns:xlink="http://www.w3.org/1999/xlink" x="0px" y="0px"
	 viewBox="130 100 250 250" style="enable-background:new 0 0 500 500;" xml:space="preserve">

<g id="XMLID_1716_">
	<path id="XMLID_1720_" class="st0" d="M246.43,346.88L246.43,346.88c-64.3,0-116.43-52.13-116.43-116.43v0
		c0-64.3,52.13-116.43,116.43-116.43l0,0c64.3,0,116.43,52.13,116.43,116.43v0C362.86,294.76,310.73,346.88,246.43,346.88z"/>
	<g id="XMLID_1717_">
		<path fill="white" id="XMLID_1719_" class="st1" d="M260.99,227.42h-47.04l0.06,13.47h31.72c-3.75,16.4-15.33,26.46-30.87,26.46
			c-20.38,0-36.9-16.52-36.9-36.9c0-20.38,16.52-36.9,36.9-36.9c9.69,0,18.5,3.74,25.09,9.85l10.41-8.97
			c-9.13-9-21.66-14.56-35.49-14.56c-27.94,0-50.58,22.65-50.58,50.58c0,27.94,22.65,50.58,50.58,50.58
			c26.83,0,46.21-20.46,46.21-48.4L260.99,227.42z"/>
		<polygon fill="white" id="XMLID_1718_" class="st1" points="328.59,227.98 309.18,227.98 309.18,208.56 296.79,208.56 296.79,227.98
			277.37,227.98 277.37,240.37 296.79,240.37 296.79,259.78 309.18,259.78 309.18,240.37 328.59,240.37 		"/>
	</g>
</g>
</svg>
